{"accessors" : [{"bufferView" : 0, "byteOffset" : 0, "componentType" : 5123, "count" : 666, "type" : "SCALAR", "max" : [665], "min" : [0]}, {"bufferView" : 1, "byteOffset" : 0, "componentType" : 5126, "count" : 666, "type" : "VEC3", "max" : [1.6200000047683716, 0.8402339816093445, 1.9800000190734863], "min" : [-1.5800000429153442, -0.3970000147819519, -2.049999952316284], "name" : "POSITION"}, {"bufferView" : 1, "byteOffset" : 12, "componentType" : 5126, "count" : 666, "type" : "VEC3", "max" : [1.0000044107437134, 1.0000044107437134, 1.0000044107437134], "min" : [-1.0000044107437134, -0.9999309182167053, -1.0000044107437134], "name" : "NORMAL"}], "asset" : {"generator" : "Aspose.3D 22.5.1", "version" : "2.0"}, "buffers" : [{"uri" : "data:application/octet-stream;base64,", "byteLength" : 17324}], "bufferViews" : [{"buffer" : 0, "byteOffset" : 0, "byteLength" : 1332, "target" : 34963}, {"buffer" : 0, "byteOffset" : 1336, "byteLength" : 15984, "byteStride" : 24, "target" : 34962}], "materials" : [{"name" : "Default", "pbrMetallicRoughness" : {"baseColorFactor" : [1, 1, 1, 1], "metallicFactor" : 0.5, "roughnessFactor" : 0.5}, "emissiveFactor" : [0, 0, 0], "alphaMode" : "OPAQUE", "doubleSided" : false}], "meshes" : [{"primitives" : [{"attributes" : {"POSITION" : 1, "NORMAL" : 2}, "indices" : 0, "material" : 0, "mode" : 4}]}], "nodes" : [{"mesh" : 0, "name" : "Default"}, {"children" : [0], "name" : "Node #1"}], "scene" : 0, "scenes" : [{"nodes" : [1]}]}